<?xml version="1.0" standalone="no"?>
<!DOCTYPE svg PUBLIC "-//W3C//DTD SVG 20010904//EN"
 "http://www.w3.org/TR/2001/REC-SVG-20010904/DTD/svg10.dtd">
<svg version="1.0" xmlns="http://www.w3.org/2000/svg"
 width="320.000000pt" height="320.000000pt" viewBox="0 0 320.000000 320.000000"
 preserveAspectRatio="xMidYMid meet">
<metadata>
Created by potrace 1.11, written by Peter Selinger 2001-2013
</metadata>
<g transform="translate(0.000000,320.000000) scale(0.100000,-0.100000)"
fill="#000000" stroke="none">
<path d="M1175 2885 c4 -17 18 -54 32 -83 30 -63 75 -99 165 -132 35 -13 74
-33 88 -44 l25 -21 -26 30 c-14 17 -38 56 -53 88 -29 59 -65 91 -156 137 -25
12 -53 30 -63 38 -18 16 -18 15 -12 -13z m175 -173 c8 -8 2 -6 -15 6 -16 11
-52 44 -80 73 l-50 53 65 -59 c36 -32 72 -65 80 -73z"/>
<path d="M1589 2783 c-48 -43 -68 -78 -79 -141 -5 -26 -11 -58 -14 -72 l-7
-25 11 24 c6 13 35 50 65 83 45 48 55 66 55 94 0 20 5 44 10 55 16 28 5 24
-41 -18z m-4 -40 c-34 -59 -54 -81 -30 -33 22 44 46 80 52 80 3 0 -7 -21 -22
-47z"/>
<path d="M1793 2720 c-29 -4 -66 -16 -82 -26 -41 -27 -112 -117 -157 -199 -35
-65 -35 -68 -11 -46 28 25 48 25 220 5 39 -5 58 -1 101 20 55 27 82 55 128
136 14 25 35 54 47 64 37 34 26 41 -71 44 -51 2 -100 4 -108 6 -8 2 -39 0 -67
-4z m85 -98 c-25 -15 -70 -42 -100 -60 -52 -31 -125 -58 -135 -49 -2 3 19 13
46 22 28 9 74 32 102 52 51 35 105 62 124 62 6 0 -11 -12 -37 -27z"/>
<path d="M1036 2552 c8 -31 14 -69 14 -83 0 -64 32 -134 82 -182 27 -27 48
-50 46 -52 -2 -1 -23 -13 -48 -25 -178 -89 -357 -291 -421 -476 -23 -65 -40
-84 -78 -83 -26 1 -26 1 5 14 39 17 56 38 48 59 -11 30 -55 19 -94 -24 -46
-50 -66 -53 -43 -5 22 47 11 54 -34 22 -21 -15 -39 -23 -41 -18 -2 6 11 36 27
68 17 32 31 66 31 76 0 37 -24 9 -55 -63 -20 -48 -42 -82 -63 -98 -18 -14 -35
-22 -38 -19 -10 10 28 97 42 97 8 0 14 5 14 10 0 6 -5 10 -10 10 -7 0 -7 6 0
19 5 11 10 28 10 38 -1 16 -3 15 -20 -6 -11 -13 -20 -29 -20 -36 0 -7 -10 -15
-22 -19 -18 -5 -20 -8 -9 -15 17 -11 6 -48 -20 -61 -19 -11 -27 -40 -10 -40 5
0 7 -9 4 -20 -7 -26 12 -26 55 0 l34 21 -7 -21 c-9 -29 6 -25 52 15 23 19 43
35 46 35 3 0 0 -13 -6 -30 -15 -39 -4 -47 36 -28 28 13 34 14 46 1 9 -11 24
-13 55 -8 l41 7 -26 -24 c-15 -14 -32 -41 -38 -61 -8 -25 -19 -37 -31 -37 -10
0 -20 -7 -24 -15 -3 -9 0 -15 9 -15 64 0 -77 -151 -155 -166 -42 -9 -38 16 4
27 16 5 39 18 52 30 46 43 21 86 -43 76 -43 -7 -80 -40 -92 -82 -25 -90 66
-119 159 -50 19 14 35 25 37 25 1 0 0 -13 -3 -29 -9 -42 10 -47 68 -17 28 15
52 25 53 24 1 -2 9 -37 18 -80 64 -305 292 -558 593 -656 157 -51 356 -54 515
-8 82 24 88 24 135 10 89 -27 182 -2 259 70 20 19 34 27 30 18 -44 -114 33
-116 175 -6 39 31 70 52 70 49 0 -3 -7 -22 -15 -42 -53 -125 49 -122 220 7 37
28 65 47 63 43 -1 -4 -27 -68 -56 -142 -60 -148 -75 -228 -48 -250 29 -24 55
15 87 132 36 134 64 197 123 274 91 120 185 139 127 25 -33 -64 -87 -112 -126
-112 -28 0 -35 -4 -35 -20 0 -11 11 -27 25 -36 20 -13 30 -14 59 -4 20 6 45 9
56 5 26 -8 82 10 142 47 44 27 48 33 48 69 l0 38 -57 -39 c-72 -51 -93 -52
-55 -3 36 46 56 105 48 139 -20 78 -125 87 -190 15 -24 -26 -40 -27 -26 -2 18
35 12 51 -19 51 -21 0 -32 -6 -36 -20 -13 -42 -254 -237 -263 -212 -1 4 20 56
48 115 27 58 50 109 50 112 0 3 -14 5 -32 5 -26 0 -46 -15 -128 -99 -87 -89
-154 -140 -167 -128 -2 3 19 50 46 106 28 55 51 105 51 111 0 5 -15 10 -33 10
-29 0 -38 -6 -65 -49 -66 -101 -203 -201 -276 -201 -29 0 -28 1 18 31 394 261
505 815 244 1216 -151 233 -402 378 -690 399 l-88 7 0 34 c0 19 5 43 10 54 6
11 7 19 1 19 -13 0 -21 -26 -21 -71 0 -32 -3 -39 -20 -39 -13 0 -20 7 -20 20
0 44 -42 129 -81 165 -56 50 -116 74 -233 91 -55 8 -103 17 -106 19 -4 3 -1
-21 6 -53z m130 -56 c76 -51 160 -132 210 -201 58 -82 56 -90 -5 -18 -62 74
-162 170 -224 217 -61 46 -48 47 19 2z m467 -401 c-32 -36 -62 -65 -67 -65
-13 0 107 128 122 130 2 0 -23 -29 -55 -65z m-370 -345 c-91 -21 -149 -45
-156 -65 -37 -95 488 -143 755 -69 139 39 109 96 -71 135 l-86 19 63 -6 c77
-6 185 -38 202 -59 7 -9 15 -38 18 -65 4 -43 8 -50 26 -50 12 0 38 9 59 20 20
11 45 20 54 20 36 0 84 -40 104 -86 27 -60 19 -112 -25 -158 -37 -40 -87 -56
-174 -56 -56 0 -66 -3 -89 -27 -14 -16 -31 -27 -38 -25 -8 1 -16 -2 -19 -7 -3
-5 24 -14 62 -20 37 -7 92 -19 122 -27 l55 -16 -45 -21 c-42 -20 -138 -108
-205 -189 -28 -33 -37 -37 -100 -44 -101 -13 -450 -10 -520 4 -33 7 -82 18
-110 26 -27 8 -84 22 -125 32 -98 22 -178 60 -192 90 -22 48 57 97 207 129 44
9 90 18 102 21 l22 4 -29 50 c-41 70 -68 170 -73 270 -5 103 1 122 47 144 44
21 149 44 201 44 31 0 22 -4 -42 -18z m582 -44 c47 -14 52 -36 12 -50 -23 -9
-30 -7 -38 6 -5 9 -31 21 -59 28 -30 7 -50 17 -50 26 0 15 61 11 135 -10z
m-1200 -13 c-19 -13 -35 -17 -35 -9 0 12 33 35 42 30 7 -5 4 -12 -7 -21z m685
17 c-8 -5 -26 -9 -40 -9 l-25 1 25 8 c14 4 32 8 40 9 13 1 13 0 0 -9z m-680
-289 c0 -56 -2 -60 -32 -79 -18 -12 -34 -19 -36 -18 -1 2 9 34 22 70 41 107
46 110 46 27z m-198 -16 c1 -14 -49 -41 -59 -31 -4 4 3 16 16 27 24 20 42 21
43 4z m1762 -271 c58 -22 -59 -99 -180 -119 l-39 -6 50 47 c46 43 114 83 142
84 6 0 18 -3 27 -6z"/>
<path d="M2085 1545 c-22 -14 -53 -25 -70 -25 -29 0 -31 -3 -46 -66 l-16 -67
83 6 c86 6 137 24 148 52 13 35 6 76 -19 100 -29 30 -30 30 -80 0z"/>
<path d="M188 1578 c-17 -18 -56 -93 -88 -166 l-59 -133 27 3 c24 3 32 16 79
127 56 131 75 161 104 161 43 0 29 -79 -19 -104 -60 -31 -64 -64 -11 -86 31
-13 39 -44 13 -54 -9 -3 -35 -6 -59 -6 -38 0 -55 -11 -55 -36 0 -11 114 -2
139 11 51 26 55 73 10 108 -30 24 -31 25 -11 31 54 18 81 105 46 154 -24 35
-79 30 -116 -10z"/>
<path d="M1043 548 c-6 -7 -18 -35 -27 -62 -23 -70 -88 -135 -72 -72 14 55
-63 57 -84 2 -10 -28 -38 -46 -69 -46 -27 0 -28 31 -3 53 23 21 32 21 32 2 0
-8 5 -15 10 -15 6 0 10 9 10 20 0 15 -7 20 -25 20 -32 0 -65 -33 -65 -65 0
-33 23 -41 68 -25 27 9 37 10 40 1 6 -18 48 -13 86 10 40 23 43 18 21 -34 -21
-52 -20 -69 7 -65 16 2 27 15 38 46 16 44 45 80 55 70 4 -3 -1 -23 -9 -43 -23
-55 -21 -77 7 -73 17 2 25 14 36 51 8 26 20 47 28 47 7 0 13 -4 13 -10 0 -13
46 -13 72 1 14 8 23 8 31 0 6 -6 19 -11 29 -11 23 0 68 21 68 32 0 5 -9 4 -21
-2 -11 -6 -30 -10 -42 -8 -19 3 -16 6 16 21 27 12 38 22 35 34 -5 27 -44 28
-68 1 -11 -13 -28 -30 -36 -40 -19 -20 -52 -29 -60 -17 -3 5 5 13 18 18 49 19
61 61 17 61 -24 0 -109 -85 -109 -109 0 -19 -29 -63 -30 -45 0 12 41 133 64
186 17 40 22 83 8 74 -5 -3 -17 -33 -27 -66 -14 -47 -27 -68 -55 -90 -23 -18
-41 -44 -49 -69 -6 -23 -16 -41 -22 -41 -12 0 -9 12 43 153 38 101 44 135 21
105z m-118 -117 c3 -5 0 -13 -6 -16 -5 -4 -8 -13 -5 -21 7 -18 -22 -30 -36
-16 -8 8 -6 18 6 36 17 27 31 33 41 17z m274 -17 c-13 -16 -39 -19 -39 -4 0
12 32 30 43 23 4 -3 3 -11 -4 -19z m111 7 c0 -9 -24 -21 -42 -21 -6 0 -6 6 2
15 14 16 40 20 40 6z"/>
<path d="M1592 444 c-12 -8 -22 -21 -22 -29 0 -19 -39 -45 -67 -45 -28 0 -31
30 -5 53 23 21 32 21 32 2 0 -8 5 -15 10 -15 6 0 10 9 10 20 0 27 -39 27 -69
-1 -30 -28 -26 -73 8 -77 13 -2 35 2 48 9 18 10 26 10 35 1 16 -16 49 -15 72
3 25 19 40 19 32 0 -8 -23 5 -18 43 15 38 33 49 33 31 0 -18 -34 -5 -34 34 0
35 32 46 27 26 -11 -9 -16 -7 -19 8 -19 11 0 31 10 46 21 34 27 40 21 22 -22
-23 -58 -28 -79 -17 -79 6 0 16 20 22 44 10 42 61 116 80 116 18 0 8 -31 -17
-55 l-27 -25 27 0 c15 0 36 5 47 11 14 7 24 7 32 0 18 -14 78 -11 104 5 29 18
37 18 29 -1 -8 -22 2 -19 44 15 46 37 53 37 38 5 -15 -33 -5 -41 29 -24 16 7
31 15 36 17 4 2 7 -3 7 -12 0 -21 7 -20 37 4 37 29 39 18 9 -35 -15 -25 -26
-53 -24 -63 3 -12 10 -5 25 23 12 22 35 51 53 63 17 13 29 26 26 29 -3 3 -12
0 -21 -7 -20 -17 -20 1 0 40 21 40 6 38 -35 -5 -41 -43 -56 -45 -35 -5 23 45
19 45 -32 1 -25 -23 -48 -39 -51 -37 -2 3 1 19 7 37 15 42 7 47 -29 21 -36
-27 -43 -28 -35 -2 9 28 4 26 -44 -20 -46 -44 -62 -50 -54 -20 7 26 -9 26 -25
0 -15 -25 -42 -26 -42 -1 0 24 23 43 55 45 33 1 33 16 0 16 -16 0 -41 -15 -67
-40 -23 -22 -47 -40 -52 -40 -6 0 -5 5 2 12 14 14 16 54 2 63 -5 3 -18 1 -29
-4 -13 -8 -20 -8 -23 0 -2 5 -23 -8 -47 -30 -60 -56 -74 -56 -45 0 20 40 11
48 -26 21 -36 -27 -39 -27 -33 -2 3 11 1 20 -4 20 -6 0 -18 -9 -28 -20 -24
-27 -38 -25 -30 3 6 19 3 18 -27 -10 -40 -39 -53 -42 -45 -11 6 23 -8 48 -27
48 -6 0 -22 -7 -34 -16z m43 -13 c3 -5 0 -13 -6 -16 -5 -4 -8 -13 -5 -21 7
-18 -22 -30 -36 -16 -8 8 -6 18 6 36 17 27 31 33 41 17z"/>
</g>
</svg>
