<!DOCTYPE svg PUBLIC "-//W3C//DTD SVG 20010904//EN" "http://www.w3.org/TR/2001/REC-SVG-20010904/DTD/svg10.dtd">
<svg version="1.0" xmlns="http://www.w3.org/2000/svg" width="426px" height="164px" viewBox="0 0 4260 1640" preserveAspectRatio="xMidYMid meet">
<g id="layer101" fill="#020202" stroke="none">
 <path d="M3259 1542 c-76 -40 -119 -99 -119 -163 0 -59 27 -118 78 -171 20 -21 31 -38 24 -38 -6 0 -19 -14 -28 -31 -17 -33 -16 -51 7 -173 9 -52 10 -71 1 -74 -6 -2 -28 -15 -48 -28 l-36 -25 -42 33 c-91 74 -155 98 -262 98 -83 0 -153 -23 -212 -69 -34 -27 -53 -36 -63 -30 -8 5 -31 9 -52 9 -29 0 -46 -7 -67 -28 -30 -31 -35 -51 -46 -176 -3 -43 -10 -74 -14 -70 -4 5 -15 55 -24 112 -17 111 -33 152 -68 176 -25 18 -75 21 -98 6 -18 -11 -30 5 -30 44 0 18 -11 39 -34 62 -30 30 -40 34 -85 34 -41 0 -66 -8 -133 -45 -95 -52 -154 -111 -170 -169 l-11 -41 -76 -1 c-42 0 -86 -5 -97 -12 -20 -11 -22 -9 -27 21 -3 25 2 39 24 65 46 52 34 136 -23 176 -34 24 -178 22 -209 -3 -22 -18 -24 -18 -53 0 -35 21 -153 27 -187 8 -11 -5 -68 -11 -128 -12 -100 -2 -111 -4 -150 -30 -58 -38 -91 -109 -91 -197 l-1 -65 -24 90 c-13 50 -24 101 -25 114 0 13 -15 38 -34 57 -30 30 -40 34 -85 34 -42 0 -66 -8 -133 -46 -46 -25 -95 -57 -111 -72 -59 -56 -85 -163 -53 -221 13 -23 11 -27 -25 -61 -34 -32 -39 -42 -39 -83 0 -58 34 -101 119 -145 54 -29 66 -32 153 -32 109 0 143 16 188 83 19 30 29 37 45 32 11 -4 36 -11 55 -17 19 -6 65 -12 102 -14 36 -1 76 -5 88 -9 12 -4 72 -4 133 0 104 7 113 9 139 35 27 27 28 28 28 6 0 -74 96 -114 205 -85 22 6 81 10 131 9 85 -1 94 1 123 25 l31 27 27 -20 c73 -51 109 -62 203 -62 92 0 118 7 156 42 l21 19 12 -45 c7 -28 22 -53 42 -70 47 -40 75 -43 133 -14 39 20 61 25 94 21 23 -3 56 0 72 7 40 17 92 76 115 131 l19 46 58 -44 c65 -50 162 -93 208 -93 64 0 155 63 220 152 l27 36 41 -48 c33 -38 54 -52 104 -69 35 -12 78 -36 98 -54 42 -40 152 -107 174 -107 12 0 16 -10 16 -37 1 -60 48 -144 95 -170 60 -34 172 -32 232 2 115 68 113 253 -4 322 l-43 25 25 30 c23 27 25 37 25 133 0 57 4 115 10 129 8 23 15 26 55 26 51 0 99 20 109 45 3 9 6 41 6 71 0 92 -37 112 -184 98 -50 -4 -128 -7 -173 -6 -59 2 -91 -2 -112 -13 -36 -18 -61 -52 -61 -82 0 -13 -2 -23 -5 -23 -10 0 -75 34 -75 39 0 3 -4 23 -9 43 l-9 37 52 11 c204 42 256 155 172 372 -43 111 -78 150 -181 199 -82 39 -152 40 -226 1z m229 -97 c32 -17 57 -41 71 -65 34 -61 61 -149 61 -200 0 -83 -40 -112 -185 -134 l-70 -11 -3 -43 c-8 -108 29 -181 107 -212 41 -16 62 -60 50 -103 -4 -16 -22 -53 -39 -83 -24 -43 -28 -59 -20 -74 15 -28 70 -67 108 -75 27 -5 32 -11 32 -35 0 -16 -7 -30 -16 -34 -22 -9 -93 28 -163 85 -32 25 -75 52 -97 58 -21 7 -49 17 -62 23 -26 13 -75 87 -91 140 -17 51 6 93 63 119 76 33 82 45 68 152 -6 51 -14 104 -17 119 -8 31 10 38 64 27 50 -11 162 9 189 34 41 38 25 154 -31 223 -33 40 -96 73 -138 74 -35 0 -79 -36 -79 -65 0 -13 15 -40 34 -59 26 -28 41 -36 70 -36 33 0 36 -2 36 -30 0 -47 -28 -54 -90 -22 -62 32 -120 108 -120 158 0 37 38 80 84 94 50 15 130 4 184 -25z m-2008 -485 c26 -26 25 -36 -5 -56 -32 -21 -40 -66 -25 -153 16 -98 55 -171 103 -196 38 -20 38 -20 53 0 21 28 14 68 -13 80 -26 11 -30 37 -8 55 17 14 97 18 138 7 38 -10 35 -40 -8 -66 -24 -14 -35 -28 -35 -44 0 -13 -10 -39 -23 -58 -19 -28 -30 -35 -64 -37 -25 -2 -55 4 -73 13 -29 15 -34 15 -49 1 -26 -23 -115 -40 -141 -26 -32 17 -23 54 15 60 l30 5 7 170 7 170 -27 22 -27 23 28 25 c35 31 88 34 117 5z m-242 -6 c14 -10 22 -25 22 -45 0 -28 -1 -29 -53 -29 -84 0 -93 -15 -89 -154 3 -78 8 -116 18 -127 8 -8 14 -28 14 -42 0 -24 -4 -27 -32 -27 -18 0 -63 -3 -100 -7 l-68 -6 0 31 c0 33 22 52 60 52 26 0 50 52 50 107 0 98 -49 173 -113 173 -27 0 -42 -8 -66 -35 -30 -34 -31 -39 -31 -129 0 -71 4 -97 15 -106 8 -7 15 -28 15 -47 l0 -35 -42 5 c-82 10 -113 21 -116 44 -2 16 5 26 26 37 26 14 30 21 35 83 4 37 7 85 7 105 0 60 27 114 65 132 46 22 163 21 194 -1 23 -16 25 -15 43 10 17 23 27 27 72 27 30 0 61 -6 74 -16z m840 -28 c7 -21 22 -86 34 -145 25 -126 18 -183 -33 -262 -25 -39 -39 -51 -72 -60 -101 -27 -278 53 -246 112 15 28 55 23 112 -13 52 -33 96 -40 122 -18 21 18 55 84 55 108 0 30 -18 38 -113 49 -127 15 -151 46 -107 133 15 30 38 49 107 89 49 28 97 49 108 48 14 -1 24 -14 33 -41z m-1500 -10 c7 -21 22 -86 34 -145 25 -126 18 -183 -33 -262 -25 -39 -39 -51 -72 -60 -101 -27 -278 53 -246 112 15 28 55 23 112 -13 52 -33 96 -40 122 -18 21 18 55 84 55 108 0 30 -18 38 -113 49 -127 15 -151 46 -107 133 15 30 38 49 107 89 49 28 97 49 108 48 14 -1 24 -14 33 -41z m3406 -29 c10 -7 17 -22 14 -33 -3 -15 -15 -20 -60 -25 -32 -4 -68 -13 -81 -22 -32 -21 -47 -83 -47 -200 0 -67 -4 -96 -12 -99 -26 -9 -171 11 -186 25 -24 25 -4 38 54 36 30 -1 59 2 65 8 5 5 12 54 16 108 7 110 0 125 -63 125 -45 0 -64 9 -64 30 0 32 26 43 88 37 31 -2 98 1 147 8 50 7 95 13 101 14 5 0 18 -5 28 -12z m-1040 -17 c30 -12 74 -38 97 -59 40 -35 43 -41 42 -87 -2 -86 -53 -175 -137 -235 -21 -16 -50 -29 -63 -29 -62 0 -224 114 -259 182 -19 38 -18 118 3 148 24 35 40 47 98 75 64 31 143 33 219 5z m-677 -110 c6 -36 15 -91 18 -123 5 -45 13 -66 36 -92 81 -92 145 -35 159 140 7 96 13 115 35 115 44 0 40 -231 -6 -321 -31 -61 -60 -75 -127 -61 -54 11 -57 11 -83 -14 -17 -16 -35 -24 -50 -22 -34 4 -52 80 -37 152 6 28 10 107 9 174 -2 114 -1 123 16 120 14 -2 21 -19 30 -68z m-967 -41 c0 -90 0 -90 -35 -123 -33 -31 -35 -32 -35 -12 0 12 -7 31 -15 42 -10 13 -14 44 -15 96 l0 77 43 4 c23 2 45 4 50 5 4 1 7 -39 7 -89z m-331 44 c19 -68 11 -93 -30 -93 -10 0 -13 113 -2 123 14 14 22 6 32 -30z m2851 -411 c62 -42 84 -85 69 -136 -15 -51 -42 -69 -107 -74 -72 -5 -96 6 -122 58 -23 45 -24 60 -9 113 23 84 82 98 169 39z"/>
 <path d="M3266 739 c-14 -11 -26 -29 -26 -40 0 -47 51 -109 90 -109 30 0 103 49 120 80 35 65 -116 122 -184 69z"/>
 <path d="M1947 802 c-21 -23 -5 -42 33 -42 34 0 65 31 48 48 -18 18 -63 14 -81 -6z"/>
 <path d="M447 792 c-21 -23 -5 -42 33 -42 34 0 65 31 48 48 -18 18 -63 14 -81 -6z"/>
 <path d="M2745 824 c-105 -54 -110 -141 -15 -227 57 -51 91 -62 158 -52 77 12 142 95 142 183 0 79 -193 144 -285 96z m93 -132 c3 -31 1 -33 -24 -30 -35 4 -53 30 -34 53 23 27 55 15 58 -23z"/>
 <path d="M3740 297 c-36 -18 -38 -59 -4 -86 36 -28 58 -27 83 5 25 32 26 36 4 62 -24 27 -53 34 -83 19z"/>
 </g>
<g id="layer102" fill="#f3f3f3" stroke="none">
 <path d="M3303 1489 c-50 -15 -103 -73 -103 -112 0 -64 89 -164 175 -197 49 -19 100 61 63 98 -7 7 -27 12 -45 12 -71 0 -112 93 -51 114 65 23 162 -40 186 -121 16 -52 15 -128 0 -141 -20 -16 -142 -31 -181 -22 -47 10 -83 -7 -80 -40 0 -14 6 -58 13 -98 18 -116 14 -131 -45 -161 -59 -31 -99 -84 -90 -121 23 -94 94 -178 167 -197 29 -8 71 -32 107 -61 33 -26 81 -58 106 -71 43 -21 47 -22 70 -7 17 11 25 26 25 45 0 33 -13 46 -55 57 -38 9 -73 32 -85 55 -8 14 -2 33 26 83 57 104 45 157 -44 199 -57 27 -71 54 -79 146 l-6 69 54 7 c143 18 209 67 209 155 0 55 -35 162 -72 218 -49 73 -179 118 -265 91z m95 -760 c55 -19 50 -60 -12 -98 -50 -31 -82 -28 -106 12 -25 40 -26 73 -2 86 23 14 81 14 120 0z"/>
 <path d="M1352 966 l-37 -35 27 -28 26 -28 -5 -157 c-5 -140 -8 -158 -23 -158 -23 0 -53 -34 -48 -56 1 -9 15 -26 29 -37 24 -17 32 -18 80 -8 29 7 61 19 70 27 15 14 20 14 48 0 49 -26 103 -21 133 12 31 32 48 64 48 89 1 10 15 27 33 38 71 45 31 98 -74 98 -49 0 -64 -4 -84 -23 -31 -29 -29 -61 3 -75 22 -10 31 -48 13 -60 -19 -11 -63 20 -83 58 -21 43 -48 153 -48 204 0 22 10 44 31 67 25 29 28 38 20 55 -33 60 -103 68 -159 17z"/>
 <path d="M1090 965 c-21 -22 -25 -23 -44 -10 -13 10 -45 15 -91 15 -136 0 -177 -48 -189 -221 -6 -100 -8 -105 -36 -127 -34 -27 -38 -52 -12 -74 31 -28 145 -47 167 -28 20 17 20 89 0 96 -12 5 -15 26 -15 99 0 78 3 96 21 119 25 32 79 36 108 7 36 -36 52 -140 32 -194 -7 -17 -20 -26 -45 -31 -38 -7 -56 -29 -56 -69 0 -43 20 -49 122 -42 51 4 99 12 106 17 16 14 15 58 -2 77 -16 19 -27 205 -15 239 7 19 16 22 62 22 60 0 77 12 77 51 0 71 -137 110 -190 54z"/>
 <path d="M1944 942 c-101 -58 -111 -67 -135 -113 -26 -53 -24 -81 10 -113 26 -25 42 -30 120 -39 103 -12 107 -17 71 -86 -30 -59 -67 -61 -148 -6 -20 14 -49 25 -64 25 -34 0 -72 -44 -59 -69 39 -72 181 -125 269 -101 82 22 151 156 137 267 -11 93 -51 242 -70 263 -25 28 -39 25 -131 -28z m71 -152 c-3 -5 -20 -10 -36 -10 -18 0 -28 4 -24 10 3 6 20 10 36 10 18 0 28 -4 24 -10z"/>
 <path d="M444 932 c-101 -58 -111 -67 -135 -113 -26 -53 -24 -81 10 -113 26 -25 42 -30 120 -39 103 -12 107 -17 71 -86 -30 -59 -67 -61 -148 -6 -20 14 -49 25 -64 25 -34 0 -72 -44 -59 -69 39 -72 181 -125 269 -101 82 22 151 156 137 267 -11 93 -51 242 -70 263 -25 28 -39 25 -131 -28z m71 -152 c-3 -5 -20 -10 -36 -10 -18 0 -28 4 -24 10 3 6 20 10 36 10 18 0 28 -4 24 -10z"/>
 <path d="M3855 905 c-49 -7 -118 -10 -151 -8 -53 5 -64 3 -83 -16 -43 -43 -19 -82 58 -91 l46 -5 -1 -93 c-1 -51 -5 -96 -8 -99 -3 -4 -28 -6 -54 -4 -37 1 -52 -3 -66 -18 -40 -44 17 -77 140 -83 88 -4 94 3 94 119 0 130 13 179 53 192 16 6 47 11 67 11 39 0 70 23 70 53 0 17 -46 58 -64 56 -6 -1 -51 -7 -101 -14z"/>
 <path d="M2733 891 c-58 -27 -101 -60 -124 -97 -23 -37 -25 -113 -5 -152 38 -74 215 -202 279 -202 51 0 163 107 199 188 11 26 20 69 21 96 1 47 -2 51 -51 97 -91 84 -224 113 -319 70z m202 -90 c75 -34 86 -57 64 -135 -16 -56 -56 -93 -111 -101 -64 -10 -99 0 -147 41 -77 66 -77 159 1 197 45 22 142 22 193 -2z"/>
 <path d="M2770 730 c-11 -11 -20 -27 -20 -35 0 -40 70 -71 98 -43 18 18 14 63 -6 81 -25 22 -48 21 -72 -3z"/>
 <path d="M2211 836 c-8 -10 -11 -54 -10 -133 1 -65 -3 -141 -9 -169 -7 -34 -8 -64 -1 -94 18 -80 60 -102 109 -55 25 24 28 24 83 13 52 -11 59 -10 84 8 70 52 97 126 96 266 0 128 -26 172 -77 135 -14 -10 -20 -35 -26 -115 -12 -156 -55 -208 -119 -144 -23 23 -31 41 -36 88 -3 32 -11 86 -17 119 -13 82 -47 117 -77 81z"/>
 <path d="M3672 382 c-28 -26 -52 -83 -52 -125 0 -29 37 -93 67 -117 24 -19 38 -21 90 -18 53 3 68 9 93 33 51 49 56 119 13 168 -32 35 -123 87 -152 87 -18 0 -40 -11 -59 -28z m140 -116 c11 -15 10 -20 -6 -41 -12 -16 -19 -18 -43 -10 -34 13 -46 60 -16 68 23 6 56 -3 65 -17z"/>
 </g>

</svg>