<?xml version="1.0" standalone="no"?>
<!DOCTYPE svg PUBLIC "-//W3C//DTD SVG 20010904//EN"
 "http://www.w3.org/TR/2001/REC-SVG-20010904/DTD/svg10.dtd">
<svg version="1.0" xmlns="http://www.w3.org/2000/svg"
 width="256.000000pt" height="256.000000pt" viewBox="0 0 256.000000 256.000000"
 preserveAspectRatio="xMidYMid meet">
<metadata>
Created by potrace 1.11, written by Peter Selinger 2001-2013
</metadata>
<g transform="translate(0.000000,256.000000) scale(0.100000,-0.100000)"
fill="#000000" stroke="none">
<path d="M760 2540 c-74 -38 -90 -80 -90 -245 0 -130 15 -205 53 -260 11 -16
73 -84 138 -150 65 -66 123 -133 129 -148 5 -16 10 -62 10 -103 l0 -74 -75 0
c-45 0 -90 6 -112 15 l-37 16 -59 -58 c-70 -69 -83 -89 -68 -107 9 -11 4 -11
-29 -3 l-41 11 166 166 c91 91 165 170 165 175 0 14 -132 145 -146 145 -5 0
-113 -103 -239 -230 l-229 -230 24 -25 c41 -44 -1 -28 -51 18 -44 42 -46 46
-53 116 -9 106 -2 115 88 108 39 -3 85 -11 101 -18 29 -11 32 -9 104 62 l74
72 -34 29 c-56 46 -144 68 -273 68 -177 -1 -219 -16 -257 -94 -16 -33 -19 -63
-19 -183 0 -89 4 -143 10 -143 6 0 10 -13 10 -29 0 -17 -4 -33 -10 -36 -17
-10 -11 -74 8 -95 13 -14 17 -34 16 -77 -1 -71 -13 -133 -25 -133 -5 0 -9 -66
-9 -147 0 -135 2 -152 23 -187 43 -77 57 -81 245 -81 164 0 168 0 227 29 44
22 95 64 193 160 l134 131 89 3 89 4 0 -77 c0 -51 -6 -89 -17 -112 l-16 -35
76 -76 77 -75 27 39 c49 71 64 128 67 249 2 98 6 116 24 140 12 15 22 36 22
46 0 15 8 19 38 19 50 0 67 20 85 95 l13 60 8 -42 c6 -36 4 -46 -14 -65 -35
-36 -50 -82 -56 -166 -8 -100 8 -215 36 -277 15 -34 63 -91 150 -180 70 -71
132 -140 139 -152 6 -12 11 -56 11 -97 l0 -76 -85 0 c-46 0 -96 5 -110 12 -24
11 -30 8 -95 -57 -39 -38 -70 -74 -70 -79 0 -25 97 -75 169 -88 82 -15 230
-21 244 -10 7 5 28 12 48 16 40 7 82 46 99 91 7 18 11 84 11 168 -2 204 -14
228 -197 408 -58 57 -112 116 -120 131 -9 17 -14 58 -14 108 l0 80 80 0 c55 0
91 -5 112 -16 l31 -16 74 74 74 73 -22 18 c-25 20 -12 23 14 2 36 -27 7 -72
-138 -213 -74 -73 -135 -135 -135 -140 0 -12 134 -142 147 -142 7 0 35 24 63
54 l51 54 42 -24 c23 -13 58 -24 78 -24 20 0 56 -7 79 -15 57 -20 306 -21 353
-1 71 30 97 89 104 235 3 52 0 88 -6 94 -6 6 -11 29 -11 52 0 60 -40 134 -115
213 -37 39 -65 78 -63 87 2 11 13 6 42 -21 21 -19 45 -34 53 -32 26 5 75 104
85 171 15 95 21 227 10 240 -5 7 -12 29 -16 49 -9 50 -61 95 -120 103 -25 4
-100 5 -168 3 -173 -5 -200 -19 -374 -190 l-135 -132 -94 -4 -95 -4 0 77 c0
51 6 89 16 112 l17 34 -69 70 c-38 38 -73 69 -79 69 -15 0 -53 -60 -76 -119
-14 -39 -19 -76 -19 -159 l0 -108 -32 -9 c-21 -6 -42 -24 -57 -47 -13 -21 -28
-35 -32 -32 -4 2 -7 51 -5 107 3 138 -7 222 -34 282 -16 34 -63 91 -153 182
-142 144 -145 150 -146 275 -1 41 2 48 22 53 19 5 112 -4 187 -19 21 -4 36 7
89 65 l64 69 -23 25 c-13 13 -44 32 -69 41 -25 9 -54 20 -63 25 -10 5 -80 9
-155 8 -111 -1 -145 -5 -173 -19z m1485 -867 c-39 -8 -63 -26 -81 -59 -13 -23
-24 -32 -35 -29 -11 4 -43 -22 -98 -80 -45 -47 -85 -85 -88 -85 -4 0 -22 -15
-40 -32 -28 -27 -35 -30 -43 -18 -8 11 -3 21 18 38 15 13 77 73 137 133 113
112 156 139 220 137 19 0 23 -2 10 -5z m78 0 c-7 -2 -19 -2 -25 0 -7 3 -2 5
12 5 14 0 19 -2 13 -5z m-2 -53 c31 -17 51 -65 38 -93 -11 -25 -83 -77 -106
-77 -8 0 -25 12 -38 26 -68 73 19 190 106 144z m-152 -154 c17 -21 4 -41 -39
-60 -45 -20 -48 -31 -20 -86 11 -22 20 -47 20 -57 0 -10 -22 -39 -50 -64 -46
-42 -50 -49 -50 -92 0 -43 2 -47 28 -52 117 -24 137 -42 130 -114 -10 -107
-72 -171 -165 -171 -44 0 -58 5 -78 25 -33 32 -31 57 6 100 44 50 81 68 104
51 25 -18 15 -50 -17 -54 -36 -4 -61 -38 -47 -64 12 -22 40 -23 78 -4 41 22
61 58 61 114 0 47 -1 50 -31 56 -17 3 -53 6 -80 6 -32 0 -49 4 -50 13 -1 6 0
47 1 89 1 68 -1 79 -17 84 -96 35 -76 137 38 199 31 17 71 42 90 56 31 24 54
36 70 38 4 1 12 -5 18 -13z m-824 -6 c3 -5 28 -10 54 -10 78 0 111 -51 111
-169 0 -51 -4 -72 -16 -82 -24 -20 -44 13 -44 73 0 54 -23 108 -45 108 -30 0
-50 -36 -63 -112 -13 -73 -36 -118 -46 -87 -10 31 -14 254 -5 271 10 19 44 24
54 8z m-1097 -52 c44 -48 54 -135 27 -237 -22 -83 -32 -89 -95 -55 -85 46
-124 111 -86 143 8 6 41 16 75 22 34 6 61 15 61 21 0 5 -7 22 -15 38 -19 36
-42 38 -94 8 -43 -25 -71 -19 -71 15 0 58 153 92 198 45z m949 -10 c49 -52 60
-104 39 -188 -32 -136 -40 -142 -125 -90 -51 32 -81 67 -81 96 0 27 30 54 60
54 15 0 42 3 59 6 29 6 32 10 26 33 -3 14 -15 35 -26 46 -20 20 -20 20 -59 -2
-45 -27 -85 -30 -94 -7 -7 19 33 58 76 71 62 20 92 15 125 -19z m597 -29 c41
-49 57 -87 54 -127 -2 -29 -10 -41 -43 -64 -22 -15 -61 -33 -86 -39 -42 -11
-50 -10 -102 14 -70 32 -96 76 -77 133 13 37 75 93 136 123 34 17 42 17 65 5
15 -7 39 -27 53 -45z m-974 26 c5 -3 25 -1 43 6 28 10 38 9 60 -6 14 -9 29
-27 33 -38 3 -12 17 -34 31 -48 l25 -27 -23 -16 c-55 -38 -143 3 -94 44 23 19
19 42 -6 38 -32 -4 -56 -45 -70 -114 -12 -58 -11 -63 9 -89 21 -26 21 -29 6
-47 -22 -23 -56 -23 -85 1 -22 18 -22 19 -5 37 16 16 18 29 12 113 -6 79 -10
98 -26 110 -58 40 27 75 90 36z m-207 -22 c14 -4 17 -10 11 -26 -4 -12 -9 -59
-11 -104 l-4 -82 38 -3 c33 -3 38 -7 41 -30 3 -22 -2 -28 -33 -38 -30 -10 -40
-9 -61 4 -20 14 -32 15 -61 7 -48 -13 -108 2 -128 32 -8 12 -19 56 -26 97 -6
41 -18 83 -27 93 -14 16 -14 19 -1 32 8 8 33 16 54 18 l40 2 -4 -91 c-2 -74 0
-93 14 -107 45 -45 95 0 95 86 0 41 -3 46 -30 56 -22 7 -30 16 -30 34 0 13 3
27 7 31 8 7 78 1 116 -11z m1698 -62 c5 -93 22 -121 76 -121 39 0 54 -23 30
-48 -14 -14 -26 -14 -89 -5 -40 7 -85 9 -99 6 -17 -3 -32 1 -43 13 -15 15 -16
19 -3 32 9 8 27 15 42 15 26 0 26 0 23 66 -3 58 -5 66 -23 67 -49 3 -55 5 -55
23 0 25 12 29 81 30 l57 1 3 -79z m-1611 -1 c6 -12 10 -40 8 -63 -3 -37 -6
-42 -28 -42 -22 0 -25 4 -24 37 3 80 22 109 44 68z m-200 -60 c0 -16 -4 -30
-10 -30 -11 0 -14 43 -3 53 11 12 13 8 13 -23z m1810 -160 c10 -6 17 -34 21
-87 7 -110 6 -113 -50 -113 l-48 0 5 56 c4 45 1 61 -16 84 -20 26 -20 29 -4
43 31 26 67 33 92 17z m-1940 -55 c30 -30 59 -55 65 -55 6 0 26 16 45 35 19
19 43 35 54 35 16 0 3 -18 -57 -77 l-77 -78 -89 -3 c-104 -4 -106 -3 -95 95 6
56 9 63 29 63 12 0 30 9 40 20 10 11 21 20 24 20 4 0 31 -25 61 -55z"/>
<path d="M2253 1554 c-3 -9 0 -20 7 -24 20 -12 50 1 50 21 0 24 -48 26 -57 3z"/>
<path d="M1972 1307 c-45 -48 -9 -86 62 -65 44 14 45 28 5 62 -37 32 -40 32
-67 3z"/>
<path d="M180 1210 c0 -5 9 -10 20 -10 11 0 20 5 20 10 0 6 -9 10 -20 10 -11
0 -20 -4 -20 -10z"/>
<path d="M1130 1210 c0 -5 9 -10 20 -10 11 0 20 5 20 10 0 6 -9 10 -20 10 -11
0 -20 -4 -20 -10z"/>
<path d="M1621 1321 c-37 -34 -43 -87 -13 -114 29 -26 131 -23 167 4 23 19 26
26 20 58 -10 56 -40 81 -96 81 -38 0 -53 -5 -78 -29z m64 -52 c0 -17 -6 -24
-20 -24 -23 0 -33 34 -13 46 20 13 33 5 33 -22z"/>
<path d="M1460 2550 c-8 -4 -37 -16 -65 -26 -42 -15 -80 -48 -240 -205 l-190
-188 77 -78 78 -78 182 182 183 181 82 7 c45 4 87 4 92 0 17 -10 13 -152 -4
-190 l-16 -32 72 -73 73 -73 28 34 c57 68 70 126 66 295 -3 172 -10 190 -84
231 -35 19 -54 21 -179 22 -77 0 -147 -4 -155 -9z"/>
<path d="M1381 2195 c-39 -37 -71 -75 -71 -84 0 -17 438 -461 455 -461 13 0
145 132 145 145 0 6 -103 113 -229 239 l-228 228 -72 -67z"/>
<path d="M707 852 c-37 -37 -67 -72 -67 -77 0 -6 103 -114 230 -240 l230 -230
70 70 c38 38 70 76 70 85 0 17 -439 460 -455 460 -6 0 -41 -30 -78 -68z"/>
<path d="M728 543 c-46 -71 -58 -126 -58 -270 0 -189 21 -227 136 -257 66 -17
199 -22 208 -7 3 5 29 11 58 13 29 2 71 13 93 23 24 11 117 95 230 207 l190
187 -70 71 c-38 38 -75 70 -83 70 -7 0 -88 -76 -181 -169 -92 -94 -179 -173
-192 -176 -13 -3 -58 -5 -99 -3 l-75 3 2 70 c1 38 7 87 14 108 l13 38 -64 64
c-36 36 -72 65 -81 65 -9 0 -27 -17 -41 -37z"/>
</g>
</svg>
